<?xml version="1.0" encoding="utf-8"?>
<svg viewBox="267.187 131.951 310.163 329.188" xmlns="http://www.w3.org/2000/svg">
  <defs>
    <style>.cls-1{fill:#faa634;}.cls-2{fill:#426ab3;}.cls-3{fill:#f58232;}.cls-4{fill:#374ea2;}.cls-5{fill:#0d3862;}</style>
  </defs>
  <path class="cls-1" d="M518,247.52l-60.66-60.67V146.41L558.48,247.52Z"/>
  <polyline class="cls-2" points="384.52 308.18 323.86 247.52 384.52 186.85 384.52 146.41 283.41 247.51 384.52 348.63"/>
  <path class="cls-2" d="M384.52,348.63v0Z"/>
  <polygon class="cls-1" points="396.7 247.52 356.26 247.52 391.41 282.67 411.64 262.45 396.7 247.52"/>
  <polygon class="cls-1" points="457.37 348.63 457.37 308.18 450.48 301.29 430.25 321.51 457.37 348.63"/>
  <polygon class="cls-3" points="356.26 247.52 396.7 247.52 457.37 186.85 457.37 146.41 356.26 247.52"/>
  <polygon class="cls-4" points="450.48 212.36 430.25 232.58 445.19 247.52 384.52 308.18 384.52 348.63 485.63 247.52 450.48 212.36"/>
  <polygon class="cls-4" points="384.52 146.41 384.52 186.85 391.41 193.74 411.64 173.52 384.52 146.41"/>
  <path class="cls-3" d="M558.48,247.52,457.37,348.63V308.18L518,247.52Z"/>
  <path class="cls-5" d="M307.87,448.87c-14,0-24.46-11.88-24.46-27s10.24-27.12,24.81-27.12c8.86,0,14.22,3.36,18.82,8.14l-5.43,6.8c-3.84-3.89-8-6.5-13.46-6.5-9.21,0-15.88,8.22-15.88,18.53s6.67,18.68,15.88,18.68c5.9,0,9.68-2.62,13.81-6.8l5.43,6c-5,5.67-10.52,9.26-19.52,9.26"/>
  <path class="cls-5" d="M391.56,448.16h-8.93l-4.88-12.63H355l-4.95,12.63h-8.65l21.16-52.67h7.83Zm-25.11-41.68L358.2,427.4h16.56Z"/>
  <polygon class="cls-5" points="436.41 434.94 436.14 434.94 421.09 410.43 421.09 448.16 412.78 448.16 412.78 395.49 421.78 395.49 436.41 420.22 451.05 395.49 460.05 395.49 460.05 448.16 451.6 448.16 451.6 410.28 436.41 434.94"/>
  <polygon class="cls-5" points="519.61 395.49 528.75 395.49 508.75 448.16 501.33 448.16 481.33 395.49 490.68 395.49 505.18 435.68 519.61 395.49"/>
  <rect class="cls-5" x="550.03" y="395.49" width="8.45" height="52.67"/>
</svg>