<svg width="394" height="342" viewBox="0 0 394 342" fill="none" xmlns="http://www.w3.org/2000/svg">
<path d="M374.062 0H19.6875C14.4679 0.00607888 9.46385 2.08224 5.77305 5.77305C2.08224 9.46385 0.00607888 14.4679 0 19.6875V321.562C0.00607888 326.782 2.08224 331.786 5.77305 335.477C9.46385 339.168 14.4679 341.244 19.6875 341.25H91.875V292.998C91.8764 290.073 92.6591 287.202 94.1423 284.681C95.6254 282.16 97.7551 280.082 100.311 278.66L175.763 236.723L150.938 174.66V124.688C150.938 112.504 155.777 100.82 164.392 92.2048C173.007 83.5898 184.692 78.75 196.875 78.75C209.058 78.75 220.743 83.5898 229.358 92.2048C237.973 100.82 242.812 112.504 242.812 124.688V174.66L217.987 236.721L293.439 278.66C295.995 280.082 298.124 282.16 299.608 284.681C301.091 287.202 301.874 290.073 301.875 292.998V341.25H374.062C379.282 341.244 384.286 339.168 387.977 335.477C391.668 331.786 393.744 326.782 393.75 321.562V19.6875C393.744 14.4679 391.668 9.46385 387.977 5.77305C384.286 2.08224 379.282 0.00607888 374.062 0ZM367.5 315H328.125V292.998C328.123 285.392 326.088 277.926 322.232 271.371C318.376 264.816 312.838 259.41 306.191 255.714L250.946 225.012L269.062 179.715V124.688C269.062 105.542 261.457 87.181 247.919 73.6432C234.382 60.1054 216.02 52.5 196.875 52.5C177.73 52.5 159.368 60.1054 145.831 73.6432C132.293 87.181 124.688 105.542 124.688 124.688V179.715L142.804 225.012L87.5585 255.718C80.9128 259.414 75.3754 264.819 71.5192 271.373C67.663 277.927 65.6281 285.393 65.625 292.998V315H26.25V26.25H367.5V315Z" fill="#CCCCCC"/>
</svg>
